<mxfile host="app.diagrams.net" modified="2023-03-14T09:42:21.183Z" agent="5.0 (Windows NT 10.0; Win64; x64) AppleWebKit/537.36 (KHTML, like Gecko) Chrome/110.0.0.0 Safari/537.36 Edg/110.0.1587.69" etag="bdl4jym6b0d8-cdtndqw" version="21.0.6" type="github">
  <diagram name="第 1 页" id="AfKsu7GxhXJZpzJyiFhj">
    <mxGraphModel dx="1761" dy="553" grid="1" gridSize="10" guides="1" tooltips="1" connect="1" arrows="1" fold="1" page="1" pageScale="1" pageWidth="827" pageHeight="1169" math="0" shadow="0">
      <root>
        <mxCell id="0" />
        <mxCell id="1" parent="0" />
        <mxCell id="ED-XNRXlxJ03OG8oUXIQ-1" value="&lt;font style=&quot;font-size: 20px;&quot;&gt;java.lang.ClassLoader&lt;/font&gt;" style="rounded=1;whiteSpace=wrap;html=1;fillColor=#dae8fc;strokeColor=#6c8ebf;" vertex="1" parent="1">
          <mxGeometry x="210" y="60" width="290" height="70" as="geometry" />
        </mxCell>
        <mxCell id="ED-XNRXlxJ03OG8oUXIQ-2" value="&lt;font style=&quot;font-size: 20px;&quot;&gt;java.security.SecureClassLoader&lt;/font&gt;" style="rounded=1;whiteSpace=wrap;html=1;fillColor=#dae8fc;strokeColor=#6c8ebf;" vertex="1" parent="1">
          <mxGeometry x="195" y="240" width="320" height="70" as="geometry" />
        </mxCell>
        <mxCell id="ED-XNRXlxJ03OG8oUXIQ-3" value="&lt;font style=&quot;font-size: 20px;&quot;&gt;java.security.SecureClassLoader&lt;/font&gt;" style="rounded=1;whiteSpace=wrap;html=1;fillColor=#dae8fc;strokeColor=#6c8ebf;" vertex="1" parent="1">
          <mxGeometry x="195" y="240" width="320" height="70" as="geometry" />
        </mxCell>
        <mxCell id="ED-XNRXlxJ03OG8oUXIQ-7" style="edgeStyle=orthogonalEdgeStyle;rounded=0;orthogonalLoop=1;jettySize=auto;html=1;entryX=0.5;entryY=1;entryDx=0;entryDy=0;shape=flexArrow;fillColor=#f8cecc;strokeColor=#b85450;" edge="1" parent="1" source="ED-XNRXlxJ03OG8oUXIQ-4" target="ED-XNRXlxJ03OG8oUXIQ-3">
          <mxGeometry relative="1" as="geometry" />
        </mxCell>
        <mxCell id="ED-XNRXlxJ03OG8oUXIQ-4" value="&lt;font style=&quot;font-size: 20px;&quot;&gt;java.net.URLClassLoader&lt;/font&gt;" style="rounded=1;whiteSpace=wrap;html=1;fillColor=#dae8fc;strokeColor=#6c8ebf;" vertex="1" parent="1">
          <mxGeometry x="210" y="380" width="290" height="70" as="geometry" />
        </mxCell>
        <mxCell id="ED-XNRXlxJ03OG8oUXIQ-8" style="edgeStyle=orthogonalEdgeStyle;rounded=0;orthogonalLoop=1;jettySize=auto;html=1;entryX=0.25;entryY=1;entryDx=0;entryDy=0;shape=flexArrow;strokeColor=none;" edge="1" parent="1" source="ED-XNRXlxJ03OG8oUXIQ-5" target="ED-XNRXlxJ03OG8oUXIQ-4">
          <mxGeometry relative="1" as="geometry" />
        </mxCell>
        <mxCell id="ED-XNRXlxJ03OG8oUXIQ-10" style="edgeStyle=orthogonalEdgeStyle;orthogonalLoop=1;jettySize=auto;html=1;entryX=0.215;entryY=1.019;entryDx=0;entryDy=0;entryPerimeter=0;curved=1;shape=flexArrow;strokeColor=none;" edge="1" parent="1" source="ED-XNRXlxJ03OG8oUXIQ-5" target="ED-XNRXlxJ03OG8oUXIQ-4">
          <mxGeometry relative="1" as="geometry">
            <Array as="points">
              <mxPoint x="140" y="505" />
              <mxPoint x="272" y="505" />
            </Array>
          </mxGeometry>
        </mxCell>
        <mxCell id="ED-XNRXlxJ03OG8oUXIQ-5" value="&lt;font style=&quot;font-size: 20px;&quot;&gt;sun.misc.ExtClassLoader&lt;/font&gt;" style="rounded=1;whiteSpace=wrap;html=1;fillColor=#dae8fc;strokeColor=#6c8ebf;" vertex="1" parent="1">
          <mxGeometry x="-10" y="530" width="290" height="70" as="geometry" />
        </mxCell>
        <mxCell id="ED-XNRXlxJ03OG8oUXIQ-6" value="&lt;font style=&quot;font-size: 20px;&quot;&gt;sun.misc.AppClassLoader&lt;/font&gt;" style="rounded=1;whiteSpace=wrap;html=1;fillColor=#dae8fc;strokeColor=#6c8ebf;" vertex="1" parent="1">
          <mxGeometry x="450" y="530" width="290" height="70" as="geometry" />
        </mxCell>
        <mxCell id="ED-XNRXlxJ03OG8oUXIQ-11" value="" style="shape=flexArrow;endArrow=classic;html=1;rounded=0;entryX=0.433;entryY=1.029;entryDx=0;entryDy=0;entryPerimeter=0;fillColor=#f8cecc;strokeColor=#b85450;exitX=0.472;exitY=-0.01;exitDx=0;exitDy=0;exitPerimeter=0;" edge="1" parent="1" source="ED-XNRXlxJ03OG8oUXIQ-5" target="ED-XNRXlxJ03OG8oUXIQ-4">
          <mxGeometry width="50" height="50" relative="1" as="geometry">
            <mxPoint x="130" y="550" as="sourcePoint" />
            <mxPoint x="180" y="500" as="targetPoint" />
          </mxGeometry>
        </mxCell>
        <mxCell id="ED-XNRXlxJ03OG8oUXIQ-12" value="" style="shape=flexArrow;endArrow=classic;html=1;rounded=0;entryX=0.666;entryY=1.048;entryDx=0;entryDy=0;entryPerimeter=0;fillColor=#f8cecc;strokeColor=#b85450;exitX=0.42;exitY=0;exitDx=0;exitDy=0;exitPerimeter=0;" edge="1" parent="1" source="ED-XNRXlxJ03OG8oUXIQ-6" target="ED-XNRXlxJ03OG8oUXIQ-4">
          <mxGeometry width="50" height="50" relative="1" as="geometry">
            <mxPoint x="127" y="529" as="sourcePoint" />
            <mxPoint x="336" y="452" as="targetPoint" />
            <Array as="points" />
          </mxGeometry>
        </mxCell>
      </root>
    </mxGraphModel>
  </diagram>
</mxfile>
